<svg width="46" height="53" viewBox="0 0 46 53" fill="none" xmlns="http://www.w3.org/2000/svg">
<g clip-path="url(#clip0)">
<path d="M21.7877 46.8794C23.9858 46.8794 25.7678 44.904 25.7678 42.4673C25.7678 40.0305 23.9858 38.0552 21.7877 38.0552C19.5896 38.0552 17.8076 40.0305 17.8076 42.4673C17.8076 44.904 19.5896 46.8794 21.7877 46.8794Z" fill="#000000"/>
<path d="M34.1324 46.8794C36.3306 46.8794 38.1125 44.904 38.1125 42.4673C38.1125 40.0305 36.3306 38.0552 34.1324 38.0552C31.9343 38.0552 30.1523 40.0305 30.1523 42.4673C30.1523 44.904 31.9343 46.8794 34.1324 46.8794Z" fill="#000000"/>
<path d="M41.9478 11.9291H14.3837C14.3208 11.9291 14.2579 11.9495 14.195 11.9495L13.4943 7.97554C13.3685 6.92601 12.7306 6.29425 11.5357 6.11084H1.48215C-0.808862 6.12103 -0.871752 12.5201 4.36614 11.6947L9.43333 11.6438L10.3318 16.4227V16.4329L13.063 31.7377C13.063 34.2137 14.8868 36.2415 17.115 36.2415H39.2165C41.4447 36.2415 43.2685 34.2137 43.2685 31.7377L45.9997 16.4329C45.9997 13.9568 44.1759 11.9291 41.9478 11.9291ZM18.265 31.7479L18.1751 31.7581C17.4294 31.8599 16.7286 31.2791 16.6298 30.4742L15.0665 18.4199C14.9587 17.5945 15.5068 16.8303 16.2794 16.7284L16.3693 16.7182C17.115 16.6163 17.8157 17.1971 17.9146 18.0021L19.4779 30.0564C19.5857 30.8817 19.0376 31.646 18.265 31.7479ZM25.3267 31.7886L25.2279 31.7988C24.4732 31.8599 23.7993 31.2384 23.7454 30.4232L22.856 18.3078C22.7931 17.4824 23.3771 16.7488 24.1497 16.6978L24.2486 16.6876C25.0032 16.6265 25.6771 17.2481 25.731 18.0632L26.6204 30.1787C26.6833 31.0142 26.0993 31.7377 25.3267 31.7886ZM33.5114 30.3417C33.5025 31.1671 32.8646 31.8294 32.1009 31.8192H32.0021C31.2384 31.809 30.6185 31.1263 30.6275 30.3009L30.8072 18.1549C30.8161 17.3296 31.454 16.6673 32.2177 16.6775H32.3165C33.0802 16.6876 33.7001 17.3703 33.6911 18.1957L33.5114 30.3417ZM41.6603 18.481L39.8364 30.4945C39.7197 31.2893 39.0099 31.8498 38.2642 31.7377L38.1743 31.7275C37.4017 31.6052 36.8716 30.8308 36.9974 30.0054L38.8122 17.9919C38.929 17.1971 39.6388 16.6367 40.3845 16.7488L40.4743 16.759C41.256 16.8812 41.7861 17.6557 41.6603 18.481Z" fill="#000000"/>
</g>
<defs>
<clipPath id="clip0">
<rect width="46" height="52.1707" fill="white" transform="translate(0 0.414673)"/>
</clipPath>
</defs>
</svg>
