<svg width="381" height="77" viewBox="0 0 381 77" fill="none" xmlns="http://www.w3.org/2000/svg">
<path d="M93.1016 11.1522L35.6821 11.1771L36.4947 0.841553H19.862V8.04851H29.5482L27.915 28.8264H0.283203V36.0333H27.3486L26.9299 41.3603H14.3149V48.5672H26.3633L26.1023 51.8875H80.2517L93.1016 11.1522ZM33.0486 44.6807L33.7283 36.0335H38.9288V28.8265H34.2948L35.1157 18.3843L84.0781 18.3631L75.7763 44.6807H33.0486Z" fill="#BA1414"/>
<path d="M61.5798 73.5407C63.216 75.739 65.6903 76.9999 68.3686 76.9999C73.6172 76.9999 78.4263 72.3559 79.3165 66.4273C79.7764 63.3647 79.0898 60.331 77.4324 58.1041C75.7963 55.9057 73.3219 54.6448 70.6436 54.6448H34.0367C28.7881 54.6448 23.9791 59.2889 23.0887 65.2173C22.6288 68.2801 23.3155 71.3139 24.9729 73.5408C26.609 75.7391 29.0834 77 31.7616 77C37.0102 77 41.8191 72.356 42.7094 66.4274C42.9449 64.8597 42.8792 63.2999 42.5373 61.8517H60.6679C60.2065 62.9048 59.8729 64.0354 59.6954 65.2172C59.2357 68.2799 59.9224 71.3136 61.5798 73.5407ZM35.9695 62.7524C36.4235 63.3624 36.5925 64.2377 36.4454 65.2171C36.0792 67.6546 33.8905 69.7931 31.7617 69.7931C30.9359 69.7931 30.2675 69.4814 29.8288 68.8922C29.3748 68.2823 29.2059 67.4069 29.353 66.4274C29.7191 63.99 31.9078 61.8517 34.0367 61.8517C34.8625 61.8516 35.5309 62.1631 35.9695 62.7524ZM72.5765 62.7524C73.0304 63.3624 73.1994 64.2377 73.0522 65.2171C72.6862 67.6546 70.4975 69.7931 68.3686 69.7931C67.5427 69.7931 66.8744 69.4814 66.4358 68.8922C65.9818 68.2823 65.8128 67.4069 65.96 66.4274C66.3261 63.99 68.5147 61.8517 70.6436 61.8517C71.4694 61.8516 72.1378 62.1631 72.5765 62.7524Z" fill="#BA1414"/>
<path d="M25.0832 16.766H8.0015V23.973H25.0832V16.766Z" fill="#BA1414"/>
<path d="M83.8198 55.6401L96.5173 16.3535C97.1485 14.4586 98.1324 13.048 99.469 12.1216C100.843 11.1531 102.383 10.6689 104.091 10.6689C105.799 10.6689 107.34 11.1321 108.714 12.0585C110.087 12.9427 111.071 14.3533 111.665 16.2903L124.419 55.6401H115.675L113.058 46.7343H94.9023L92.1735 55.6401H83.8198ZM97.297 38.7759H110.719L105.094 19.3852C104.945 18.8378 104.63 18.5641 104.147 18.5641C103.739 18.5641 103.442 18.8378 103.256 19.3852L97.297 38.7759Z" fill="#BA1414"/>
<path d="M128.012 55.6401V36.5021C128.012 33.9756 128.55 31.6597 129.627 29.5543C130.703 27.4489 132.244 25.7856 134.249 24.5645C136.291 23.3013 138.741 22.6696 141.6 22.6696C143.642 22.6696 145.48 23.0697 147.114 23.8697C148.747 24.6698 150.139 25.7646 151.29 27.1541H151.346C152.534 25.7646 153.945 24.6698 155.579 23.8697C157.249 23.0697 159.106 22.6696 161.148 22.6696C164.007 22.6696 166.438 23.3013 168.443 24.5645C170.485 25.7856 172.045 27.4489 173.121 29.5543C174.198 31.6597 174.736 33.9756 174.736 36.5021V55.6401H167.107V36.5021C167.107 34.7336 166.513 33.2177 165.325 31.9544C164.174 30.6912 162.781 30.0596 161.148 30.0596C159.514 30.0596 158.103 30.6912 156.915 31.9544C155.764 33.2177 155.189 34.7336 155.189 36.5021V55.6401H147.559V36.5021C147.559 34.7336 146.965 33.2177 145.777 31.9544C144.626 30.6912 143.234 30.0596 141.6 30.0596C139.967 30.0596 138.556 30.6912 137.368 31.9544C136.217 33.2177 135.641 34.7336 135.641 36.5021V55.6401H128.012Z" fill="#BA1414"/>
<path d="M193.156 56.3981C190.557 56.3981 188.292 55.6401 186.362 54.1242C184.431 52.6083 182.928 50.5872 181.851 48.0607C180.811 45.4921 180.292 42.6709 180.292 39.597C180.292 36.4389 180.886 33.5756 182.074 31.007C183.299 28.4384 185.044 26.4172 187.309 24.9435C189.573 23.4276 192.284 22.6696 195.439 22.6696C198.632 22.6696 201.324 23.4276 203.515 24.9435C205.705 26.4594 207.376 28.5016 208.527 31.0702C209.678 33.6387 210.253 36.481 210.253 39.597V55.6401H202.624V50.2714H202.512C201.658 51.9557 200.489 53.4084 199.004 54.6295C197.556 55.8085 195.607 56.3981 193.156 56.3981ZM195.328 49.0081C197.556 49.0081 199.301 48.0817 200.563 46.229C201.863 44.3763 202.512 42.1235 202.512 39.4707C202.512 36.86 201.863 34.6493 200.563 32.8387C199.301 30.986 197.556 30.0596 195.328 30.0596C193.063 30.0596 191.281 30.986 189.982 32.8387C188.682 34.6493 188.033 36.86 188.033 39.4707C188.033 42.1235 188.682 44.3763 189.982 46.229C191.281 48.0817 193.063 49.0081 195.328 49.0081Z" fill="#BA1414"/>
<path d="M222.544 55.6401C221.282 55.6401 220.149 55.2822 219.147 54.5664C218.144 53.8505 217.328 52.9031 216.696 51.7241C216.102 50.503 215.805 49.1555 215.805 47.6817C215.805 46.3343 216.102 45.0921 216.696 43.9552C217.328 42.8183 218.126 41.8708 219.091 41.1129L230.731 32.2071C230.953 32.0387 231.065 31.8281 231.065 31.5755C231.065 31.0702 230.842 30.8175 230.396 30.8175H217.198V23.4276H232.624C233.886 23.4276 235.019 23.7855 236.021 24.5013C237.024 25.2172 237.822 26.1857 238.416 27.4068C239.047 28.5858 239.363 29.9122 239.363 31.386C239.363 32.7334 239.047 33.9756 238.416 35.1125C237.822 36.2494 237.042 37.1969 236.077 37.9548L224.438 46.8606C224.215 47.0291 224.103 47.2396 224.103 47.4922C224.103 47.9975 224.326 48.2502 224.772 48.2502H238.75V55.6401H222.544Z" fill="#BA1414"/>
<path d="M259.961 55.6401C256.731 55.6401 253.909 54.9453 251.496 53.5558C249.119 52.1241 247.263 50.1871 245.926 47.7449C244.627 45.3026 243.977 42.5656 243.977 39.5339C243.977 36.1231 244.59 33.1545 245.815 30.628C247.04 28.1016 248.711 26.1435 250.827 24.754C252.944 23.3644 255.338 22.6696 258.011 22.6696C261.204 22.6696 263.785 23.4276 265.752 24.9435C267.757 26.4594 269.224 28.5016 270.152 31.0702C271.08 33.5966 271.544 36.4179 271.544 39.5339C271.544 39.9549 271.526 40.4602 271.489 41.0497C271.452 41.5971 271.396 42.0182 271.322 42.313H252.108C252.517 44.2499 253.426 45.7237 254.837 46.7343C256.285 47.7449 258.03 48.2502 260.072 48.2502H267.98V55.6401H259.961ZM252.052 36.5021H263.915C263.766 34.4388 263.191 32.8176 262.188 31.6386C261.223 30.4175 259.849 29.8069 258.067 29.8069C256.174 29.8069 254.744 30.5017 253.779 31.8913C252.814 33.2387 252.238 34.7757 252.052 36.5021Z" fill="#BA1414"/>
<path d="M294.964 55.6401C291.919 55.5559 289.172 54.9453 286.721 53.8084C284.271 52.6294 282.173 51.0504 280.428 49.0713C278.683 47.0501 277.328 44.7131 276.363 42.0603C275.435 39.4075 274.971 36.5652 274.971 33.5335C274.971 30.5017 275.435 27.6594 276.363 25.0066C277.328 22.3538 278.683 20.0379 280.428 18.0588C282.173 16.0377 284.271 14.4376 286.721 13.2585C289.172 12.0795 291.919 11.469 294.964 11.4268H301.034V19.3852H295.131C292.792 19.4273 290.694 20.08 288.838 21.3433C287.018 22.5644 285.571 24.2276 284.494 26.333C283.454 28.4384 282.934 30.8386 282.934 33.5335C282.934 36.2284 283.454 38.6496 284.494 40.7971C285.571 42.9025 287.018 44.5657 288.838 45.7869C290.694 47.008 292.792 47.6396 295.131 47.6817H301.034V55.6401H294.964Z" fill="#BA1414"/>
<path d="M318.08 56.3981C315.481 56.3981 313.217 55.6401 311.286 54.1242C309.355 52.6083 307.852 50.5872 306.775 48.0607C305.735 45.4921 305.216 42.6709 305.216 39.597C305.216 36.4389 305.81 33.5756 306.998 31.007C308.223 28.4384 309.968 26.4172 312.233 24.9435C314.498 23.4276 317.208 22.6696 320.364 22.6696C323.557 22.6696 326.248 23.4276 328.439 24.9435C330.629 26.4594 332.3 28.5016 333.451 31.0702C334.602 33.6387 335.177 36.481 335.177 39.597V55.6401H327.548V50.2714H327.436C326.582 51.9557 325.413 53.4084 323.928 54.6295C322.48 55.8085 320.531 56.3981 318.08 56.3981ZM320.252 49.0081C322.48 49.0081 324.225 48.0817 325.487 46.229C326.787 44.3763 327.436 42.1235 327.436 39.4707C327.436 36.86 326.787 34.6493 325.487 32.8387C324.225 30.986 322.48 30.0596 320.252 30.0596C317.987 30.0596 316.205 30.986 314.906 32.8387C313.606 34.6493 312.957 36.86 312.957 39.4707C312.957 42.1235 313.606 44.3763 314.906 46.229C316.205 48.0817 317.987 49.0081 320.252 49.0081Z" fill="#BA1414"/>
<path d="M342.122 55.6401V32.5861C342.122 29.7227 342.827 27.491 344.238 25.8909C345.686 24.2487 347.672 23.4276 350.197 23.4276H358.05V30.8175H351.534C351.051 30.8175 350.624 31.007 350.253 31.386C349.919 31.7649 349.752 32.2492 349.752 32.8387V55.6401H342.122Z" fill="#BA1414"/>
<path d="M373.196 55.6401C370.672 55.6401 368.685 54.819 367.237 53.1768C365.826 51.5346 365.121 49.3029 365.121 46.4817V30.8175H360.276V23.4276H365.121V15.3429H372.751V23.4276H380.714V30.8175H372.751V46.229C372.751 46.7764 372.918 47.2606 373.252 47.6817C373.623 48.0607 374.05 48.2502 374.533 48.2502H380.714V55.6401H373.196Z" fill="#BA1414"/>
</svg>
